<?xml version="1.0" encoding="utf-8"?>
<!-- Generator: Adobe Illustrator 25.0.0, SVG Export Plug-In . SVG Version: 6.00 Build 0)  -->
<svg version="1.0" id="Calque_1" xmlns="http://www.w3.org/2000/svg" xmlns:xlink="http://www.w3.org/1999/xlink" x="0px" y="0px"
	 viewBox="0 0 146 48" enable-background="new 0 0 146 48" xml:space="preserve">
<g>
	<path fill="#FF6060" d="M14.34,24.45l-7.75,7.94v11.14H0.5V0.5h6.09v24.08L29.7,0.5h6.98L18.53,19.84l19.43,23.69h-7.11
		L14.34,24.45z"/>
	<path fill="#FF6060" d="M82.4,40.07l2.41-4.61c2.79,1.92,7.11,3.33,11.3,3.33c5.46,0,7.62-1.66,7.62-4.48
		c0-7.3-20.44-1.02-20.44-13.96c0-5.89,5.21-9.73,13.46-9.73c4.19,0,9.01,1.15,11.81,2.95l-2.54,4.61
		c-2.92-1.92-6.09-2.56-9.27-2.56c-5.08,0-7.62,1.92-7.62,4.48c0,7.68,20.44,1.41,20.44,14.09c0,5.89-5.33,9.6-13.97,9.6
		C90.39,43.91,85.06,42.25,82.4,40.07z"/>
	<path fill="#FF6060" d="M145.5,23.81v19.72h-5.59v-4.35c-1.9,2.95-5.59,4.61-10.66,4.61c-7.36,0-11.93-3.97-11.93-9.6
		c0-5.25,3.3-9.48,12.95-9.48h9.27v-1.15c0-4.99-2.92-7.81-8.63-7.81c-3.81,0-7.74,1.41-10.28,3.46l-2.41-4.48
		c3.3-2.69,8.13-4.23,13.33-4.23C140.55,10.62,145.5,14.97,145.5,23.81z M139.66,33.54v-4.61h-9.01c-5.84,0-7.49,2.31-7.49,4.99
		c0,3.2,2.67,5.25,7.11,5.25C134.71,39.3,138.26,37.38,139.66,33.54z"/>
	<path fill="#FF6060" d="M73.76,24.32l-15.11-8.84l-8.38-4.87l-8.25,14.47l0.13,13.57l14.98,8.84l1.52-0.9V33.8l6.73-11.91
		l6.86,3.97v12.81l1.52-0.9V24.32z"/>
</g>
</svg>
