<?xml version="1.0" encoding="utf-8"?>
<!-- Generator: Adobe Illustrator 25.0.0, SVG Export Plug-In . SVG Version: 6.00 Build 0)  -->
<svg version="1.1" id="Calque_1" xmlns="http://www.w3.org/2000/svg" xmlns:xlink="http://www.w3.org/1999/xlink" x="0px" y="0px"
	 viewBox="0 0 146 48" style="enable-background:new 0 0 146 48;" xml:space="preserve">
<style type="text/css">
	.st0{fill:#FFFFFF;}
</style>
<g>
	<path class="st0" d="M14.3,24.5l-7.8,7.9v11.1H0.5v-43h6.1v24.1L29.7,0.5h7L18.5,19.8L38,43.5h-7.1L14.3,24.5z"/>
	<path class="st0" d="M82.4,40.1l2.4-4.6c2.8,1.9,7.1,3.3,11.3,3.3c5.5,0,7.6-1.7,7.6-4.5c0-7.3-20.4-1-20.4-14
		c0-5.9,5.2-9.7,13.5-9.7c4.2,0,9,1.1,11.8,2.9l-2.5,4.6c-2.9-1.9-6.1-2.6-9.3-2.6c-5.1,0-7.6,1.9-7.6,4.5c0,7.7,20.4,1.4,20.4,14.1
		c0,5.9-5.3,9.6-14,9.6C90.4,43.9,85.1,42.2,82.4,40.1z"/>
	<path class="st0" d="M145.5,23.8v19.7h-5.6v-4.3c-1.9,3-5.6,4.6-10.7,4.6c-7.4,0-11.9-4-11.9-9.6c0-5.2,3.3-9.5,13-9.5h9.3v-1.1
		c0-5-2.9-7.8-8.6-7.8c-3.8,0-7.7,1.4-10.3,3.5l-2.4-4.5c3.3-2.7,8.1-4.2,13.3-4.2C140.6,10.6,145.5,15,145.5,23.8z M139.7,33.5
		v-4.6h-9c-5.8,0-7.5,2.3-7.5,5c0,3.2,2.7,5.2,7.1,5.2C134.7,39.3,138.3,37.4,139.7,33.5z"/>
	<path class="st0" d="M73.8,24.3l-15.1-8.8l-8.4-4.9L42,25.1l0.1,13.6l15,8.8l1.5-0.9V33.8l6.7-11.9l6.9,4v12.8l1.5-0.9V24.3z"/>
</g>
</svg>
